PathFileType	4	(X/Y/Z)	Walk1.trc
DataRate	CameraRate	NumFrames	NumMarkers	Units	OrigDataRate	OrigDataStartFrame	OrigNumFrames
200.000000	200.000000	4	61	mm	200.000000	330	465
Frame#	Times		LFHD		RFHD		CLAV		STRN		LASI		RASI		RACR1		RUA1		RWRR		RWRU		RCAR		LACR1		LUA1		LFA1		LWRU		LCAR		RTH3		RTH2		RTB1		RTB4		LTH1		LTH3		LTH2		LTH4		LLFC		LMFC		LTB1		LTB3		LTB2		LTB4		LLMAL		LMMAL		LMT1		LMT5		LToe		LBHD		RBHD		RTB3		RFA1		RMFC		RMT5		RLFC		RToe		LElbowM		RTH4		RTB2		RLMAL		RMMAL		RMT1		LWRR		RElbow		LPSI		RPSI		RTH1		C7		LCAL		T10		RBack		RElbowM		RCAL		LElbow
			X1	Y1	Z1	X2	Y2	Z2	X3	Y3	Z3	X4	Y4	Z4	X5	Y5	Z5	X6	Y6	Z6	X7	Y7	Z7	X8	Y8	Z8	X9	Y9	Z9	X10	Y10	Z10	X11	Y11	Z11	X12	Y12	Z12	X13	Y13	Z13	X14	Y14	Z14	X15	Y15	Z15	X16	Y16	Z16	X17	Y17	Z17	X18	Y18	Z18	X19	Y19	Z19	X20	Y20	Z20	X21	Y21	Z21	X22	Y22	Z22	X23	Y23	Z23	X24	Y24	Z24	X25	Y25	Z25	X26	Y26	Z26	X27	Y27	Z27	X28	Y28	Z28	X29	Y29	Z29	X30	Y30	Z30	X31	Y31	Z31	X32	Y32	Z32	X33	Y33	Z33	X34	Y34	Z34	X35	Y35	Z35	X36	Y36	Z36	X37	Y37	Z37	X38	Y38	Z38	X39	Y39	Z39	X40	Y40	Z40	X41	Y41	Z41	X42	Y42	Z42	X43	Y43	Z43	X44	Y44	Z44	X45	Y45	Z45	X46	Y46	Z46	X47	Y47	Z47	X48	Y48	Z48	X49	Y49	Z49	X50	Y50	Z50	X51	Y51	Z51	X52	Y52	Z52	X53	Y53	Z53	X54	Y54	Z54	X55	Y55	Z55	X56	Y56	Z56	X57	Y57	Z57	X58	Y58	Z58	X59	Y59	Z59	X60	Y60	Z60	X61	Y61	Z61

330	1.65	716.53	1549.4	-75.702	714.84	1553.6	23.675	616.17	1310.8	-22.745	633.03	1178.3	-20.174	586.37	903.1	-126.84	604.45	932.92	120.79	544.24	1353.8	143.54	534	1186	201.87	551.01	779.09	279.05	604.37	781.87	235.95	596.31	720.06	290.28	535.54	1368.9	-170.51	519.49	1195.2	-231.25	562.91	906.19	-272.64	644.18	812.5	-253.32	635.73	743.39	-287.71	565.85	590.67	157.82	616.96	683.15	162.97	594.64	333.56	86.749	579.11	248.62	74.2	558.62	735.79	-183.1	598.28	570.35	-159.9	632.64	669.57	-155.94	577.43	652.41	-172.81	629.02	434.19	-146.26	622.21	414.3	-14.136	580.57	338.47	-82.644	442.98	237.48	-75.33	497.66	302.16	-138.11	508.92	289.41	-79.539	323.2	203.65	-115.89	347.33	203.87	-37.392	394.79	80.158	-50.901	368.05	95.37	-125.21	433.8	43.525	-79.594	560.2	1539.4	-101.47	562.23	1549.6	44.049	562.19	165.46	58.508	555.77	899.13	268.3	549.24	442.87	-6.3065	595.67	23.035	82.279	573.83	446.61	121.52	684.48	28.576	29.932	507.88	1036.8	-251.51	560	672.19	179.29	533.74	251.1	115.52	495.83	61.04	62.248	512.76	86.364	-14.522	632.71	35.182	-3.5044	578.09	791.06	-256.58	513.87	1023.4	242.53	416.22	962.17	-43.813	426.01	963.95	56.305	555.73	755.97	203.96	512.06	1422.3	-21.797	265.67	220.54	-78.132	424.68	1211.8	-11.552	425.4	1298.6	53.495	482.28	1016	169.63	444.02	39.602	19.499	497.26	1018	-178.68
331	1.655	723.78	1550	-75.49	722.2	1554.2	23.887	623.46	1311.6	-22.305	640.39	1179.3	-19.858	593.91	903.96	-126.44	611.75	933.42	121.21	551.58	1354.9	143.95	542.11	1187.1	202.25	563.81	780.21	278.17	617	783.89	234.94	609.99	721.77	289.08	542.52	1369.4	-170.12	525.28	1195.7	-230.64	564.26	905.75	-271.58	643.4	810.01	-252.75	632.88	740.87	-286.74	570.38	590.75	157.76	622.46	682.67	161.8	595.57	333.46	86.595	579.78	248.59	74.072	567.4	737.01	-182.92	609.29	572.18	-159.34	642.41	671.85	-155.78	587.38	653.88	-172.4	641.86	436.48	-145.38	635.72	416.9	-13.174	595.72	339.89	-81.683	460.36	235.86	-74.071	513.54	301.75	-136.97	525.18	289.21	-78.425	341.32	199.4	-114.38	365.59	200.18	-35.936	416.78	77.972	-49.773	389.28	92.445	-124	456.84	42.734	-78.635	567.38	1540.2	-101.07	569.6	1550.5	44.449	562.6	165.49	58.414	566.75	900.3	267.93	549.51	442.62	-5.625	595.71	23.049	82.216	576.25	446.47	121.76	684.65	28.464	29.988	512.52	1037.3	-250.16	565.73	672.25	179.02	534.44	251.22	115.42	495.92	61.259	62.213	512.88	86.516	-14.572	632.87	35.143	-3.5335	576.69	790.28	-255.59	523.02	1024.2	242.74	423.73	963.11	-43.522	433.37	964.52	56.586	562.73	756.19	203.54	519.28	1423.1	-21.455	283.3	214.37	-76.473	432.07	1212.4	-10.84	432.77	1299.3	54.152	491.36	1016.9	169.77	444.14	39.962	19.373	501.85	1018.9	-177.3
332	1.66	730.99	1550.6	-75.295	729.53	1554.8	24.082	630.76	1312.4	-21.849	647.77	1180.3	-19.478	601.45	904.74	-126.05	619.03	933.83	121.63	558.93	1356	144.36	550.19	1188	202.64	576.62	781.33	277.24	629.63	785.94	233.92	623.69	723.51	287.84	549.52	1369.9	-169.73	531.14	1196.2	-230.01	565.62	905.35	-270.53	642.55	807.61	-252.18	629.97	738.48	-285.73	574.9	590.79	157.69	627.94	682.14	160.57	596.49	333.39	86.442	580.44	248.58	73.944	576.13	738.16	-182.78	620.19	573.95	-158.82	652.1	674.07	-155.65	597.28	655.29	-172.03	654.56	438.73	-144.54	649.06	419.49	-12.257	610.77	341.27	-80.71	477.86	234.09	-72.814	529.44	301.19	-135.84	541.45	288.93	-77.31	359.67	194.85	-112.92	384.03	196.26	-34.511	439.01	75.667	-48.718	410.73	89.374	-122.86	480.08	41.867	-77.783	574.53	1540.8	-100.67	576.94	1551.2	44.837	563.01	165.54	58.325	577.7	901.45	267.56	549.6	442.42	-4.8871	595.75	23.065	82.147	578.6	446.32	122	684.83	28.337	30.05	517.19	1037.8	-248.83	571.48	672.24	178.73	535.14	251.36	115.32	496.02	61.496	62.185	513.01	86.685	-14.616	633.03	35.105	-3.5611	575.27	789.6	-254.62	532.13	1024.9	242.95	431.24	963.97	-43.263	440.73	965.03	56.839	569.8	756.33	203.09	526.5	1423.7	-21.108	301.2	207.89	-74.826	439.48	1212.9	-10.137	440.15	1300	54.806	500.42	1017.7	169.9	444.27	40.348	19.234	506.42	1019.8	-175.96
333	1.665	738.16	1551.1	-75.115	736.83	1555.4	24.26	638.07	1313.1	-21.379	655.17	1181.1	-19.035	609	905.42	-125.68	626.29	934.15	122.05	566.28	1356.9	144.79	558.26	1188.9	203.05	589.44	782.44	276.29	642.29	788.01	232.89	637.39	725.25	286.55	556.55	1370.3	-169.32	537.08	1196.5	-229.36	566.98	905	-269.48	641.66	805.31	-251.6	627.03	736.24	-284.7	579.39	590.79	157.61	633.39	681.55	159.31	597.4	333.34	86.301	581.11	248.58	73.825	584.81	739.25	-182.68	631.01	575.65	-158.34	661.7	676.21	-155.54	607.1	656.65	-171.72	667.12	440.94	-143.74	662.2	422.03	-11.384	625.73	342.6	-79.732	495.48	232.19	-71.563	545.37	300.48	-134.73	557.72	288.56	-76.196	378.26	190.03	-111.5	402.66	192.14	-33.119	461.48	73.272	-47.737	432.42	86.181	-121.79	503.5	40.948	-77.032	581.65	1541.4	-100.28	584.25	1551.9	45.214	563.43	165.61	58.245	588.63	902.56	267.19	549.54	442.28	-4.1061	595.79	23.081	82.074	580.86	446.17	122.23	685.03	28.195	30.115	521.86	1038.2	-247.52	577.25	672.18	178.42	535.83	251.51	115.23	496.13	61.751	62.161	513.16	86.873	-14.655	633.19	35.069	-3.5866	573.86	789.02	-253.65	541.19	1025.6	243.17	438.75	964.75	-43.037	448.08	965.47	57.064	576.89	756.4	202.64	533.72	1424.2	-20.754	319.4	201.11	-73.196	446.91	1213.3	-9.4478	447.54	1300.5	55.459	509.46	1018.4	170.02	444.4	40.76	19.079	510.97	1020.6	-174.65
